<svg width="85" height="48" viewBox="0 0 85 48" fill="none" xmlns="http://www.w3.org/2000/svg">
<path d="M1.5 1.5H1V2V47V47.5H1.5H15.5H16V47V26.1514L30.084 47.2774L30.2324 47.5H30.5H50H50.3045L50.4442 47.2294L73.9442 1.72945L74.321 1H73.5H60H59.6957L59.5559 1.27029L44.5608 30.2609L39.9703 38.2851L15.9177 1.72519L15.7696 1.5H15.5H1.5Z" fill="white" stroke="black"/>
<mask id="path-2-inside-1_948_273" fill="white">
<path fill-rule="evenodd" clip-rule="evenodd" d="M73 45C79.6274 45 85 39.6274 85 33C85 26.3726 79.6274 21 73 21C66.3726 21 61 26.3726 61 33C61 39.6274 66.3726 45 73 45ZM73 36C74.6569 36 76 34.6569 76 33C76 31.3431 74.6569 30 73 30C71.3431 30 70 31.3431 70 33C70 34.6569 71.3431 36 73 36Z"/>
</mask>
<path fill-rule="evenodd" clip-rule="evenodd" d="M73 45C79.6274 45 85 39.6274 85 33C85 26.3726 79.6274 21 73 21C66.3726 21 61 26.3726 61 33C61 39.6274 66.3726 45 73 45ZM73 36C74.6569 36 76 34.6569 76 33C76 31.3431 74.6569 30 73 30C71.3431 30 70 31.3431 70 33C70 34.6569 71.3431 36 73 36Z" fill="white"/>
<path d="M84 33C84 39.0751 79.0751 44 73 44V46C80.1797 46 86 40.1797 86 33H84ZM73 22C79.0751 22 84 26.9249 84 33H86C86 25.8203 80.1797 20 73 20V22ZM62 33C62 26.9249 66.9249 22 73 22V20C65.8203 20 60 25.8203 60 33H62ZM73 44C66.9249 44 62 39.0751 62 33H60C60 40.1797 65.8203 46 73 46V44ZM75 33C75 34.1046 74.1046 35 73 35V37C75.2091 37 77 35.2091 77 33H75ZM73 31C74.1046 31 75 31.8954 75 33H77C77 30.7909 75.2091 29 73 29V31ZM71 33C71 31.8954 71.8954 31 73 31V29C70.7909 29 69 30.7909 69 33H71ZM73 35C71.8954 35 71 34.1046 71 33H69C69 35.2091 70.7909 37 73 37V35Z" fill="black" mask="url(#path-2-inside-1_948_273)"/>
<mask id="path-4-inside-2_948_273" fill="white">
<path fill-rule="evenodd" clip-rule="evenodd" d="M39 24C45.6274 24 51 18.6274 51 12C51 5.37258 45.6274 0 39 0C32.3726 0 27 5.37258 27 12C27 18.6274 32.3726 24 39 24ZM39 15C40.6569 15 42 13.6569 42 12C42 10.3431 40.6569 9 39 9C37.3431 9 36 10.3431 36 12C36 13.6569 37.3431 15 39 15Z"/>
</mask>
<path fill-rule="evenodd" clip-rule="evenodd" d="M39 24C45.6274 24 51 18.6274 51 12C51 5.37258 45.6274 0 39 0C32.3726 0 27 5.37258 27 12C27 18.6274 32.3726 24 39 24ZM39 15C40.6569 15 42 13.6569 42 12C42 10.3431 40.6569 9 39 9C37.3431 9 36 10.3431 36 12C36 13.6569 37.3431 15 39 15Z" fill="white"/>
<path d="M50 12C50 18.0751 45.0751 23 39 23V25C46.1797 25 52 19.1797 52 12H50ZM39 1C45.0751 1 50 5.92487 50 12H52C52 4.8203 46.1797 -1 39 -1V1ZM28 12C28 5.92487 32.9249 1 39 1V-1C31.8203 -1 26 4.8203 26 12H28ZM39 23C32.9249 23 28 18.0751 28 12H26C26 19.1797 31.8203 25 39 25V23ZM41 12C41 13.1046 40.1046 14 39 14V16C41.2091 16 43 14.2091 43 12H41ZM39 10C40.1046 10 41 10.8954 41 12H43C43 9.79086 41.2091 8 39 8V10ZM37 12C37 10.8954 37.8954 10 39 10V8C36.7909 8 35 9.79086 35 12H37ZM39 14C37.8954 14 37 13.1046 37 12H35C35 14.2091 36.7909 16 39 16V14Z" fill="black" mask="url(#path-4-inside-2_948_273)"/>
</svg>
